#!OML:ASF X:\für Bonn\!DataBase\2005_08_12_Daniel\c3d\Daniel.ASF
:FULLY-SPECIFIED
:DEGREES
1
root -22.5073 15.2343 -1.18138 496.132 97.0196 -2022.53
lowerback 33.7994 -2.16982 7.50892
upperback 3.23645 0.343035 -0.586832
thorax -13.6787 -0.0747044 -4.85297
lowerneck -11.235 0.785509 -5.27744
upperneck -16.0405 2.15326 -1.49793
head -3.35048 1.75484 0.393363
rclavicle 1.81888e-014 1.17283e-014
rhumerus -137.521 -29.8646 75.8612
rradius 13.5122
rwrist 161.067
rhand -17.666 14.1326
rfingers 7.12502
rthumb 8.59262 -15.6726
lclavicle 1.81888e-014 1.17283e-014
lhumerus -51.1728 4.97339 82.1905
lradius 23.993
lwrist -18.3131
lhand 0.114128 -9.54857
lfingers 7.12502
lthumb 25.6997 18.7364
rfemur -30.4501 0.669501 26.0511
rtibia 74.1155
rfoot -35.0863 8.39488
rtoes -6.34503
lfemur -37.428 -6.91685 -15.1955
ltibia 86.0168
lfoot -35.6691 -2.03446
ltoes -11.2955
2
root -22.245 15.2835 -1.19791 495.029 97.0619 -2024.11
lowerback 33.039 -2.19542 7.83276
upperback 2.91843 0.345673 -0.520153
thorax -13.728 -0.117636 -4.95903
lowerneck -11.6957 0.768804 -5.24992
upperneck -16.1308 2.19197 -1.39021
head -3.30648 1.77961 0.427015
rclavicle -1.32192e-014 1.43125e-014
rhumerus -131.712 -34.2308 68.7069
rradius 12.6266
rwrist 156.755
rhand -17.4341 14.6953
rfingers 7.12502
rthumb 8.81642 -15.1005
lclavicle -1.32192e-014 1.43125e-014
lhumerus -52.178 5.57326 81.0168
lradius 22.7141
lwrist -21.8072
lhand 0.613685 -11.0814
lfingers 7.12502
lthumb 26.178 17.1336
rfemur -29.5912 0.214842 25.9498
rtibia 73.6183
rfoot -34.8121 8.86985
rtoes -6.43495
lfemur -36.4049 -6.91371 -15.3085
ltibia 85.4903
lfoot -36.3043 -1.8733
ltoes -10.838
3
root -21.9753 15.3555 -1.2109 493.962 97.0542 -2025.61
lowerback 32.1071 -2.19681 8.08493
upperback 2.64285 0.335819 -0.436059
thorax -13.6518 -0.155091 -5.00275
lowerneck -12.045 0.752404 -5.26911
upperneck -16.1142 2.22047 -1.26109
head -3.24459 1.79442 0.475891
rclavicle 4.96962e-016 1.27222e-014
rhumerus -123.717 -38.8063 58.319
rradius 11.6275
rwrist 150.305
rhand -17.543 15.5214
rfingers 7.12502
rthumb 8.71137 -14.2789
lclavicle 4.96962e-016 1.27222e-014
lhumerus -53.0038 6.59875 79.4075
lradius 21.2002
lwrist -25.773
lhand 0.284157 -12.4158
lfingers 7.12502
lthumb 25.8625 15.8456
rfemur -28.5256 -0.254631 25.7964
rtibia 72.8078
rfoot -34.2598 9.33908
rtoes -6.56304
lfemur -35.2588 -6.89751 -15.4404
ltibia 84.7246
lfoot -36.6337 -1.84013
ltoes -10.3142
4
root -21.6966 15.4563 -1.21995 492.967 96.9542 -2027.01
lowerback 31.0122 -2.18266 8.24823
upperback 2.37921 0.291397 -0.367544
thorax -13.4884 -0.199772 -5.00314
lowerneck -12.0032 0.772658 -5.24491
upperneck -16.1593 2.25085 -1.17261
head -3.26925 1.8062 0.500455
rclavicle 6.5102e-015 1.25234e-014
rhumerus -115.106 -41.753 47.2889
rradius 10.8765
rwrist 144.273
rhand -18.0986 16.6822
rfingers 7.12502
rthumb 8.17515 -13.1397
lclavicle 6.5102e-015 1.25234e-014
lhumerus -53.8526 7.78445 77.4298
lradius 19.6629
lwrist -29.9171
lhand -0.710724 -13.3138
lfingers 7.12502
lthumb 24.9095 15.083
rfemur -27.226 -0.741131 25.5605
rtibia 71.6459
rfoot -33.4379 9.72143
rtoes -6.71022
lfemur -33.9033 -6.9295 -15.6345
ltibia 83.6179
lfoot -36.3869 -1.88852
ltoes -9.92397
5
root -21.4139 15.5825 -1.22602 492.275 96.7358 -2028.01
lowerback 29.9646 -2.16903 8.27671
upperback 2.1218 0.2001 -0.329494
thorax -13.3359 -0.258042 -4.94732
lowerneck -11.8552 0.816698 -5.20025
upperneck -16.1139 2.2932 -1.10586
head -3.27907 1.81687 0.514505
rclavicle -9.19379e-015 -4.37326e-015
rhumerus -108.472 -42.7625 39.0011
rradius 10.4318
rwrist 140.693
rhand -18.9685 17.8777
rfingers 7.12502
rthumb 7.33555 -11.9751
lclavicle -9.19379e-015 -4.37326e-015
lhumerus -54.7392 9.36415 74.8556
lradius 18.1648
lwrist -34.541
lhand -2.15009 -13.7636
lfingers 7.12502
lthumb 23.5294 14.8173
rfemur -25.7039 -1.21013 25.1733
rtibia 70.1601
rfoot -32.2076 10.1539
rtoes -6.53903
lfemur -32.3575 -7.00291 -15.964
ltibia 82.1997
lfoot -35.5955 -1.88708
ltoes -9.81947
6
root -21.121 15.7351 -1.22342 490.093 96.3611 -2030.47
lowerback 28.87 -2.20742 8.26411
upperback 1.86154 0.0287741 -0.263907
thorax -13.1656 -0.348074 -4.81099
lowerneck -11.7639 0.857813 -5.17215
upperneck -15.8302 2.3287 -1.02729
head -3.19483 1.81357 0.537842
rclavicle 7.45443e-016 7.35503e-015
rhumerus -105.744 -42.3617 36.1769
rradius 10.2593
rwrist 141.178
rhand -20.0692 19.0685
rfingers 7.12502
rthumb 6.27302 -10.8186
lclavicle 7.45443e-016 7.35503e-015
lhumerus -55.7674 11.1652 71.7834
lradius 16.8483
lwrist -39.3397
lhand -3.72892 -13.8126
lfingers 7.12502
lthumb 22.0143 14.9546
rfemur -23.964 -1.7434 24.8258
rtibia 68.3301
rfoot -30.6939 10.3336
rtoes -6.51871
lfemur -30.6536 -7.23857 -16.2662
ltibia 80.4517
lfoot -34.4026 -1.97438
ltoes -9.59202
7
root -20.8079 15.9089 -1.21015 485.896 95.8246 -2034.87
lowerback 27.4944 -2.30455 8.19364
upperback 2.0215 -0.267567 -0.0688639
thorax -13.1258 -0.51029 -4.73475
lowerneck -11.5522 0.923296 -5.0831
upperneck -15.4401 2.36784 -1.00938
head -3.09168 1.80348 0.530779
rclavicle -8.59744e-015 4.07509e-014
rhumerus -104.399 -41.5803 35.2091
rradius 10.1881
rwrist 142.741
rhand -20.9326 19.993
rfingers 7.12502
rthumb 5.4394 -9.91722
lclavicle -8.59744e-015 4.07509e-014
lhumerus -56.9537 13.2496 68.0193
lradius 15.6393
lwrist -44.5041
lhand -5.29381 -13.6324
lfingers 7.12502
lthumb 20.5111 15.3041
rfemur -21.9227 -2.38012 24.4926
rtibia 66.188
rfoot -28.8904 10.2978
rtoes -6.52542
lfemur -28.738 -7.56969 -16.5505
ltibia 78.4209
lfoot -32.8661 -2.19443
ltoes -9.5625
8
root -20.4723 16.1003 -1.19468 480.47 95.3845 -2040.4
lowerback 25.6847 -2.38794 8.17126
upperback 1.9307 -0.572602 -0.0124686
thorax -12.3008 -0.624107 -4.53507
lowerneck -11.3479 0.988393 -5.00224
upperneck -14.7132 2.39183 -1.01003
head -2.8701 1.77143 0.521774
rclavicle -1.14301e-015 1.41137e-014
rhumerus -103.176 -40.755 34.2965
rradius 10.2169
rwrist 144.08
rhand -21.2739 20.4827
rfingers 7.12502
rthumb 5.10991 -9.43565
lclavicle -1.14301e-015 1.41137e-014
lhumerus -58.278 15.5764 63.6665
lradius 14.5808
lwrist -49.9327
lhand -6.66046 -13.2321
lfingers 7.12502
lthumb 19.1974 15.8404
rfemur -19.6098 -2.88037 24.2803
rtibia 63.761
rfoot -26.7658 10.0345
rtoes -6.55062
lfemur -26.6028 -7.74849 -16.7232
ltibia 76.1452
lfoot -30.9916 -2.51755
ltoes -9.7465
